<svg xmlns="http://www.w3.org/2000/svg" width="600" height="600" viewBox="0 0 600 600"><defs><radialGradient id="plate"><stop stop-color="#fffdf3"/><stop offset=".74" stop-color="#efeddd"/><stop offset=".78" stop-color="#d4d6bd"/><stop offset=".81" stop-color="#faf8ec"/><stop offset="1" stop-color="#e8e6d4"/></radialGradient><linearGradient id="leaf" x2="1" y2="1"><stop stop-color="#a8b774"/><stop offset="1" stop-color="#4e703e"/></linearGradient><linearGradient id="roll" x2="1" y2="1"><stop stop-color="#f6e9bb"/><stop offset=".5" stop-color="#e6d7a6"/><stop offset="1" stop-color="#bca875"/></linearGradient><radialGradient id="sauce"><stop stop-color="#c3995e"/><stop offset="1" stop-color="#8c5938"/></radialGradient></defs><circle cx="300" cy="300" r="249" fill="url(#plate)"/><circle cx="300" cy="300" r="236" fill="none" stroke="#b1b99e" stroke-width="2"/><circle cx="300" cy="300" r="218" fill="none" stroke="#d1d4bd"/><g transform="translate(300 300)"><g fill="url(#leaf)" stroke="#728651" stroke-width="1"><path d="M-70 70C-210 95-229-7-187-106C-103-120-55-18-70 70Z"/><path d="M-20 80C-147-34-86-150-27-155C24-87 16-7-20 80Z"/><path d="M50 40C-31-123 72-181 132-151C153-73 104 11 50 40Z"/><path d="M63 98C179 32 209 81 175 137C105 164 76 135 63 98Z"/></g><g fill="none" stroke="#d4dca2" stroke-width="2" opacity=".7"><path d="M-173-91Q-171 7-79 66M-34-129Q-39-29-20 61M121-127Q75-82 53 34M160 122L79 107"/></g><g transform="rotate(-30)"><g fill="#6b713b" opacity=".15"><rect x="-134" y="-93" width="67" height="229" rx="30"/><rect x="-47" y="-119" width="67" height="229" rx="30"/><rect x="39" y="-128" width="67" height="229" rx="30"/></g><g fill="url(#roll)" stroke="#e3d9b3" stroke-width="2"><rect x="-140" y="-99" width="64" height="221" rx="28"/><rect x="-52" y="-124" width="64" height="221" rx="28"/><rect x="34" y="-133" width="64" height="221" rx="28"/></g><g fill="#789057" opacity=".7"><path d="M-126 80L-116-74L-106 93Z M-109 83L-98-59L-88 89Z M-39 62L-30-100L-17 68Z M-14 54L-5-101L0 60Z M45 42L55-108L66 49Z M69 46L82-109L89 49Z"/></g><g fill="#db9670" stroke="#edbc93" stroke-width="7" opacity=".9"><path d="M-124-59Q-82-57-101-19Q-127-14-124-59Z M-128 4Q-82 5-104 44Q-126 46-128 4Z M-38-90Q7-80-16-47Q-41-49-38-90Z M-38-24Q6-21-15 15Q-40 14-38-24Z M49-94Q94-90 70-54Q46-55 49-94Z M46-31Q96-24 71 9Q45 11 46-31Z"/></g><g stroke="#fbf3d6" stroke-width="2" opacity=".65"><path d="M-135-84L-135 101M-127-87L-130 103M-48-111L-46 82M-40-114L-41 85M39-114L40 72M47-120L47 74"/></g></g><circle cx="103" cy="111" r="68" fill="#777f5c" opacity=".13"/><circle cx="100" cy="104" r="64" fill="#faf5df" stroke="#c5c6ab" stroke-width="2"/><circle cx="100" cy="104" r="51" fill="url(#sauce)"/><g fill="#d7ba83"><ellipse cx="78" cy="90" rx="6" ry="4" transform="rotate(20 78 90)"/><ellipse cx="110" cy="122" rx="7" ry="4"/><ellipse cx="119" cy="90" rx="5" ry="4"/><ellipse cx="91" cy="113" rx="5" ry="3"/><ellipse cx="103" cy="78" rx="6" ry="4"/></g><g fill="#af5037"><ellipse cx="85" cy="133" rx="6" ry="3"/><ellipse cx="124" cy="108" rx="7" ry="3" transform="rotate(30 124 108)"/></g><g fill="#67804a"><ellipse cx="-99" cy="132" rx="19" ry="9" transform="rotate(-30 -99 132)"/><ellipse cx="-119" cy="153" rx="18" ry="10" transform="rotate(25 -119 153)"/><ellipse cx="-80" cy="155" rx="23" ry="10" transform="rotate(-30 -80 155)"/><path d="M-125 178Q-98 137-72 126" fill="none" stroke="#688146" stroke-width="3"/></g></g></svg>
